<svg width="3986" height="1185" xmlns="http://www.w3.org/2000/svg" xmlns:xlink="http://www.w3.org/1999/xlink" overflow="hidden"><defs><clipPath id="clip0"><rect x="232" y="668" width="3986" height="1185"/></clipPath></defs><g clip-path="url(#clip0)" transform="translate(-232 -668)"><path d="M2.79987-1.99427 231.505 319.097 225.905 323.086-2.79987 1.99427ZM237.245 309.381 242 339.757 214.846 325.336Z" transform="matrix(1 0 0 -1 3107.5 1704.26)"/><path d="M810.558 923.063 821.803 923.251 831.284 923.728 830.939 930.594 821.515 930.121 821.63 930.124 810.442 929.937ZM838.296 924.329 855.565 926.027 859.003 926.577 857.917 933.365 854.582 932.832 854.789 932.858 837.624 931.171ZM865.791 927.663 877.645 929.559 886.262 931.474 884.77 938.185 876.254 936.293 876.457 936.332 864.705 934.451ZM892.973 932.966 899.224 934.355 913.094 938.348 911.192 944.954 897.424 940.991 897.629 941.043 891.482 939.677ZM919.701 940.25 920.046 940.349 939.353 947.131 937.075 953.617 917.861 946.868 918.049 946.928 917.799 946.856ZM945.896 949.835 958.94 955.314 964.937 958.333 961.844 964.474 955.954 961.508 956.169 961.607 943.234 956.174ZM971.077 961.426 976.628 964.221 984.938 968.979 989.304 971.646 985.719 977.513 981.395 974.871 981.48 974.921 973.292 970.233 973.454 970.32 967.985 967.566ZM995.234 975.419 1000.54 979 1007.65 984.208 1012.09 987.768 1007.79 993.131 1003.41 989.619 1003.53 989.711 996.532 984.586 996.639 984.662 991.388 981.117ZM1017.46 992.336 1020.73 995.241 1026.48 1000.93 1031.8 1006.76 1032.33 1007.42 1026.97 1011.73 1026.51 1011.15 1026.65 1011.32 1021.46 1005.63 1021.58 1005.76 1015.96 1000.19 1016.09 1000.32 1012.89 997.474ZM1036.76 1012.96 1040.82 1018.75 1044.46 1024.86 1047.53 1031.13 1047.64 1031.42 1041.22 1033.87 1041.16 1033.72 1041.29 1034.01 1038.35 1028.01 1038.48 1028.26 1034.98 1022.38 1035.12 1022.6 1031.13 1016.91ZM1050.15 1038.16 1051.74 1043.88 1052.8 1050.3 1053.18 1056.6 1053.34 1059.19 1046.48 1059.61 1046.32 1057.02 1045.94 1050.9 1045.98 1051.25 1044.98 1045.18 1045.06 1045.55 1043.52 1040.01ZM1054.06 1065.67 1054.52 1068.44 1054.44 1068.08 1056.12 1074.14 1056.02 1073.84 1058.34 1079.9 1058.21 1079.6 1060.44 1084.11 1054.28 1087.16 1051.97 1082.5 1049.54 1076.14 1047.76 1069.74 1047.28 1066.79ZM1063.71 1089.87 1064.52 1091.25 1064.38 1091.02 1068.5 1096.9 1068.37 1096.72 1072.99 1102.47 1072.87 1102.32 1075.85 1105.64 1070.74 1110.24 1067.69 1106.85 1062.94 1100.94 1058.67 1094.86 1057.78 1093.36ZM1080.47 1110.43 1083.53 1113.42 1083.41 1113.3 1089.53 1118.74 1089.4 1118.63 1095.76 1123.73 1091.46 1129.1 1085.03 1123.94 1078.78 1118.39 1075.66 1115.34ZM1101.18 1127.73 1102.97 1129.04 1102.86 1128.96 1110.29 1133.96 1110.18 1133.89 1118.06 1138.76 1117.95 1138.7 1118.1 1138.79 1114.71 1144.76 1114.5 1144.64 1106.51 1139.7 1098.96 1134.63 1097.11 1133.27ZM1124.08 1142.18 1126.2 1143.39 1126.04 1143.3 1142.31 1151.43 1139.23 1157.58 1122.88 1149.41 1120.68 1148.16ZM1148.4 1154.09 1162.02 1159.83 1161.84 1159.76 1167.34 1161.71 1165.05 1168.19 1159.44 1166.21 1145.73 1160.43ZM1173.82 1164.01 1181.59 1166.76 1181.38 1166.69 1193.3 1170.08 1191.42 1176.69 1179.39 1173.28 1171.53 1170.49ZM1199.91 1171.96 1202.06 1172.57 1201.87 1172.52 1219.82 1176.52 1218.32 1183.23 1200.28 1179.21 1198.03 1178.57ZM1226.32 1177.71 1246.73 1180.64 1245.76 1187.44 1225.34 1184.51ZM1244.77 1161.08 1288.94 1187.06 1241.65 1206.81Z"/><rect x="235.5" y="676.5" width="2482" height="1149" stroke="#2F528F" stroke-width="6.875" stroke-miterlimit="8" fill="none"/><path d="M1529.5 1057.08C1529.5 1048.47 1536.47 1041.5 1545.08 1041.5L2041.92 1041.5C2050.53 1041.5 2057.5 1048.47 2057.5 1057.08L2057.5 1223.92C2057.5 1232.53 2050.53 1239.5 2041.92 1239.5L1545.08 1239.5C1536.47 1239.5 1529.5 1232.53 1529.5 1223.92Z" stroke="#2F528F" stroke-width="6.875" stroke-miterlimit="8" stroke-dasharray="27.5 20.625" fill="#8FAADC" fill-rule="evenodd" fill-opacity="0.4"/><text fill="#000000" fill-opacity="0.4" font-family="Times New Roman,Times New Roman_MSFontService,sans-serif" font-weight="400" font-size="83" transform="matrix(1 0 0 1 1586.73 1171)">Transformer</text><path d="M1408.5 1182.08C1408.5 1173.47 1415.47 1166.5 1424.08 1166.5L1920.92 1166.5C1929.53 1166.5 1936.5 1173.47 1936.5 1182.08L1936.5 1348.92C1936.5 1357.53 1929.53 1364.5 1920.92 1364.5L1424.08 1364.5C1415.47 1364.5 1408.5 1357.53 1408.5 1348.92Z" stroke="#2F528F" stroke-width="6.875" stroke-miterlimit="8" fill="#8FAADC" fill-rule="evenodd"/><text font-family="Times New Roman,Times New Roman_MSFontService,sans-serif" font-weight="400" font-size="83" transform="matrix(1 0 0 1 1465.73 1296)">Transformer</text><path d="M1287.5 1307.08C1287.5 1298.47 1294.47 1291.5 1303.08 1291.5L1799.92 1291.5C1808.53 1291.5 1815.5 1298.47 1815.5 1307.08L1815.5 1473.92C1815.5 1482.53 1808.53 1489.5 1799.92 1489.5L1303.08 1489.5C1294.47 1489.5 1287.5 1482.53 1287.5 1473.92Z" stroke="#2F528F" stroke-width="6.875" stroke-miterlimit="8" stroke-dasharray="27.5 20.625" fill="#8FAADC" fill-rule="evenodd" fill-opacity="0.4"/><text fill="#000000" fill-opacity="0.4" font-family="Times New Roman,Times New Roman_MSFontService,sans-serif" font-weight="400" font-size="83" transform="matrix(1 0 0 1 1344.73 1420)">Transformer</text><path d="M1166.5 1433.08C1166.5 1424.47 1173.47 1417.5 1182.08 1417.5L1678.92 1417.5C1687.53 1417.5 1694.5 1424.47 1694.5 1433.08L1694.5 1599.92C1694.5 1608.53 1687.53 1615.5 1678.92 1615.5L1182.08 1615.5C1173.47 1615.5 1166.5 1608.53 1166.5 1599.92Z" stroke="#2F528F" stroke-width="6.875" stroke-miterlimit="8" fill="#8FAADC" fill-rule="evenodd"/><text font-family="Times New Roman,Times New Roman_MSFontService,sans-serif" font-weight="400" font-size="83" transform="matrix(1 0 0 1 1223.73 1547)">Transformer</text><path d="M282.5 1057.08C282.5 1048.47 289.474 1041.5 298.077 1041.5L794.923 1041.5C803.526 1041.5 810.5 1048.47 810.5 1057.08L810.5 1223.92C810.5 1232.53 803.526 1239.5 794.923 1239.5L298.077 1239.5C289.474 1239.5 282.5 1232.53 282.5 1223.92Z" stroke="#385723" stroke-width="6.875" stroke-miterlimit="8" fill="#A9D18E" fill-rule="evenodd"/><text font-family="Times New Roman,Times New Roman_MSFontService,sans-serif" font-weight="400" font-size="83" transform="matrix(1 0 0 1 340.068 1171)">Transformer</text><path d="M3085.5 1182.08C3085.5 1173.47 3092.47 1166.5 3101.08 1166.5L3597.92 1166.5C3606.53 1166.5 3613.5 1173.47 3613.5 1182.08L3613.5 1348.92C3613.5 1357.53 3606.53 1364.5 3597.92 1364.5L3101.08 1364.5C3092.47 1364.5 3085.5 1357.53 3085.5 1348.92Z" stroke="#843C0C" stroke-width="6.875" stroke-miterlimit="8" fill="#F4B183" fill-rule="evenodd"/><text font-family="Times New Roman,Times New Roman_MSFontService,sans-serif" font-weight="400" font-size="83" transform="matrix(1 0 0 1 3143.14 1296)">Transformer</text><path d="M2843.5 1433.08C2843.5 1424.47 2850.47 1417.5 2859.08 1417.5L3355.92 1417.5C3364.53 1417.5 3371.5 1424.47 3371.5 1433.08L3371.5 1599.92C3371.5 1608.53 3364.53 1615.5 3355.92 1615.5L2859.08 1615.5C2850.47 1615.5 2843.5 1608.53 2843.5 1599.92Z" stroke="#843C0C" stroke-width="6.875" stroke-miterlimit="8" fill="#F4B183" fill-rule="evenodd"/><text font-family="Times New Roman,Times New Roman_MSFontService,sans-serif" font-weight="400" font-size="83" transform="matrix(1 0 0 1 2901.14 1547)">Transformer</text><rect x="2741.5" y="671.5" width="1469" height="1160" stroke="#C55A11" stroke-width="6.875" stroke-miterlimit="8" fill="none"/><path d="M2378.5 1513.06 2802.33 1513.06 2802.33 1519.94 2378.5 1519.94ZM2797.74 1493.58 2843.58 1516.5 2797.74 1539.42Z"/><path d="M0.017405-3.43746 449.572-1.16121 449.538 5.7137-0.017405 3.43746ZM445.088-20.6633 490.805 2.48511 444.856 25.1694Z" transform="matrix(1 0 0 -1 2595.5 1267.98)"/><path d="M810.603 923.064 819.046 923.318 827.514 924.216 831.565 924.86 830.485 931.65 826.522 931.02 826.7 931.043 818.45 930.168 818.709 930.186 810.397 929.936ZM838.55 926.152 844.367 927.484 852.685 929.916 858.708 932.064 856.399 938.539 850.471 936.425 850.661 936.487 842.536 934.112 842.733 934.163 837.015 932.854ZM865.265 934.665 869.032 936.237 876.995 940.059 884.084 943.863 880.833 949.921 873.812 946.154 873.95 946.224 866.138 942.474 866.301 942.547 862.618 941.01ZM890.14 947.467 892.541 948.916 900.044 954.002 907.445 959.426 907.55 959.516 903.094 964.751 903.085 964.743 903.281 964.898 896.031 959.585 896.134 959.658 888.759 954.658 888.912 954.756 886.588 953.354ZM912.786 963.97 921.458 971.346 928.188 978.076 923.326 982.937 916.694 976.306 916.898 976.493 908.332 969.206ZM933.049 982.937 934.598 984.487 946.659 998.832 946.814 999.051 941.21 1003.03 941.136 1002.93 941.306 1003.15 929.431 989.024 929.632 989.243 928.188 987.799ZM950.797 1004.65 957.572 1014.19 962.268 1022.12 956.353 1025.62 951.73 1017.81 951.886 1018.05 945.193 1008.64ZM965.771 1028.03 967.14 1030.34 971.413 1038.76 975.068 1046.85 968.803 1049.68 965.18 1041.67 965.247 1041.81 961.06 1033.56 961.167 1033.75 959.856 1031.54ZM977.705 1053.36 978.784 1056.05 981.835 1064.88 984.333 1073.21 977.748 1075.18 975.27 1066.93 975.313 1067.06 972.313 1058.37 972.373 1058.53 971.325 1055.92ZM986.012 1080.07 986.672 1082.83 988.454 1091.93 989.672 1100.7 982.862 1101.64 981.658 1092.97 981.689 1093.16 979.939 1084.22 979.97 1084.36 979.326 1081.67ZM990.281 1107.73 990.496 1110.31 990.749 1119.47 990.999 1128.53 990.988 1128.34 990.988 1128.34 984.137 1128.92 984.129 1128.82 983.876 1119.66 983.626 1110.59 983.637 1110.79 983.43 1108.31ZM991.56 1135.2 991.738 1137.34 991.717 1137.15 992.967 1146.15 992.936 1145.96 994.686 1154.9 994.656 1154.76 994.721 1155.03 988.035 1156.63 987.953 1156.29 986.171 1147.19 984.895 1138 984.708 1135.77ZM996.322 1161.72 996.781 1163.64 996.732 1163.46 999.357 1172.27 999.312 1172.13 1002.31 1180.82 1002.25 1180.66 1002.35 1180.91 995.972 1183.47 995.841 1183.14 992.789 1174.3 990.116 1165.33 989.636 1163.32ZM1004.91 1187.29 1005.69 1189.22 1005.63 1189.08 1009.44 1197.45 1009.38 1197.32 1013.57 1205.57 1013.46 1205.38 1013.51 1205.45 1007.58 1208.95 1007.48 1208.78 1003.21 1200.37 999.339 1191.85 998.534 1189.85ZM1017 1211.38 1022.9 1221.38 1022.74 1221.13 1027.97 1228.46 1022.37 1232.46 1017.05 1225 1011.08 1214.87ZM1031.96 1234.06 1033.49 1236.19 1033.32 1235.98 1044.91 1249.76 1039.64 1254.18 1027.97 1240.3 1026.37 1238.05ZM1049.53 1254.44 1057.94 1262.89 1057.73 1262.69 1064.36 1268.34 1059.91 1273.58 1053.16 1267.84 1044.66 1259.29ZM1069.6 1272.79 1071.54 1274.44 1071.36 1274.3 1078.54 1279.61 1078.4 1279.51 1085.84 1284.45 1085.74 1284.39 1085.92 1284.5 1082.31 1290.35 1082.08 1290.21 1074.53 1285.19 1067.17 1279.76 1065.15 1278.03ZM1091.77 1288.11 1093.24 1289.01 1093.05 1288.9 1100.8 1293.03 1100.68 1292.96 1108.49 1296.71 1108.32 1296.64 1109.67 1297.2 1107.02 1303.55 1105.59 1302.95 1097.64 1299.13 1089.73 1294.92 1088.17 1293.96ZM1116.01 1299.85 1116.26 1299.95 1115.81 1299.8 1124.34 1302.05 1122.59 1308.69 1113.83 1306.39 1113.36 1306.19ZM1123.02 1282 1164.06 1312.69 1114.89 1327.11Z"/><path d="M810.546 923.063 831.169 923.339 831.077 930.213 810.454 929.937ZM838.044 923.431 838.585 923.438 858.733 924.164 858.486 931.035 838.376 930.31 838.454 930.312 837.952 930.305ZM865.604 924.412 866.418 924.441 886.279 925.668 885.855 932.53 866.038 931.306 866.126 931.31 865.356 931.282ZM893.141 926.092 893.813 926.134 913.771 927.816 913.193 934.667 893.274 932.988 893.351 932.993 892.717 932.954ZM920.705 928.404 941.208 930.638 940.464 937.473 919.96 935.239ZM948.123 931.433 968.565 934.176 967.65 940.99 947.208 938.247ZM975.429 935.174 983.17 936.356 994.724 938.302 995.891 938.519 994.638 945.279 993.498 945.067 993.554 945.077 982.054 943.14 982.106 943.148 974.392 941.971ZM1002.65 939.772 1005.9 940.374 1016.69 942.508 1022.96 943.846 1021.53 950.57 1015.28 949.237 1015.33 949.247 1004.58 947.122 1004.62 947.13 1001.4 946.532ZM1029.75 945.354 1036.89 947.039 1046.27 949.493 1049.86 950.485 1048.02 957.111 1044.46 956.125 1044.5 956.138 1035.19 953.7 1035.27 953.721 1028.17 952.046ZM1056.55 952.37 1063.55 954.478 1071.28 957.137 1076.3 958.985 1073.92 965.436 1068.94 963.6 1069.01 963.625 1061.38 961 1061.51 961.042 1054.57 958.953ZM1082.81 961.597 1085.09 962.546 1091.06 965.374 1096.38 968.294 1100.97 971.245 1101.69 971.792 1097.52 977.259 1096.92 976.796 1097.14 976.954 1092.77 974.141 1092.97 974.263 1087.85 971.451 1088.03 971.545 1082.22 968.795 1082.36 968.86 1080.16 967.941ZM1107.24 976.566 1108.17 977.5 1110.69 980.907 1112.27 984.616 1112.77 987.92 1113.21 990.795 1112.98 989.966 1114.23 992.904 1113.83 992.207 1115.95 995.082 1115.62 994.694 1115.77 994.842 1110.9 999.703 1110.58 999.374 1108.06 995.968 1106.48 992.259 1105.98 988.955 1105.54 986.08 1105.77 986.908 1104.52 983.971 1104.92 984.668 1102.8 981.793 1103.13 982.181 1102.38 981.428ZM1120.55 999.097 1121.83 1000.08 1121.61 999.921 1125.98 1002.73 1125.78 1002.61 1130.9 1005.42 1130.72 1005.33 1136.53 1008.08 1136.39 1008.02 1137.8 1008.6 1135.15 1014.95 1133.66 1014.33 1127.69 1011.5 1122.37 1008.58 1117.78 1005.63 1116.38 1004.56ZM1144.03 1011.14 1149.81 1013.27 1149.72 1013.24 1157.35 1015.8 1157.26 1015.78 1163.39 1017.67 1161.37 1024.24 1155.2 1022.33 1147.48 1019.74 1141.65 1017.59ZM1169.91 1019.55 1174.23 1020.75 1174.16 1020.73 1183.53 1023.11 1183.48 1023.09 1189.77 1024.57 1188.19 1031.27 1181.87 1029.78 1172.43 1027.38 1168.06 1026.17ZM1196.42 1026.09 1203.49 1027.64 1203.42 1027.63 1214.17 1029.75 1214.11 1029.74 1216.5 1030.17 1215.28 1036.94 1212.86 1036.5 1202.05 1034.37 1194.94 1032.81ZM1223.27 1031.39 1225.23 1031.74 1225.2 1031.74 1236.7 1033.67 1236.64 1033.66 1243.53 1034.71 1242.49 1041.51 1235.58 1040.46 1224.04 1038.51 1222.05 1038.15ZM1250.27 1035.71 1270.71 1038.45 1269.79 1045.27 1249.35 1042.52ZM1277.45 1039.25 1297.95 1041.48 1297.21 1048.32 1276.71 1046.08ZM1304.72 1042.07 1325.27 1043.81 1324.69 1050.66 1304.14 1048.93ZM1332.06 1044.23 1352.64 1045.5 1352.22 1052.36 1331.63 1051.09ZM1359.41 1045.72 1367.12 1045.96 1366.9 1052.83 1359.19 1052.59ZM1362.94 1026.38 1408.25 1050.31 1361.92 1072.21Z"/><path d="M0.0121433-3.43748 20.637-3.36462 20.6127 3.51034-0.0121433 3.43748ZM27.512-3.34033 48.1368-3.26747 48.1126 3.60748 27.4877 3.53463ZM55.0118-3.24319 75.6367-3.17033 75.6124 3.70463 54.9875 3.63177ZM82.5116-3.14604 103.137-3.07318 103.112 3.80178 82.4873 3.72892ZM110.011-3.04889 130.636-2.97603 130.612 3.89892 109.987 3.82606ZM137.511-2.95175 158.136-2.87889 158.112 3.99607 137.487 3.92321ZM165.011-2.8546 185.636-2.78174 185.612 4.09322 164.987 4.02036ZM192.511-2.75745 213.136-2.68459 213.112 4.19036 192.487 4.1175ZM220.011-2.66031 240.636-2.58745 240.611 4.28751 219.986 4.21465ZM247.511-2.56316 268.135-2.4903 268.111 4.38466 247.486 4.3118ZM275.01-2.46602 295.635-2.39316 295.611 4.4818 274.986 4.40894ZM302.51-2.36887 323.135-2.29601 323.111 4.57895 302.486 4.50609ZM330.01-2.27172 350.635-2.19886 350.611 4.67609 329.986 4.60323ZM357.51-2.17458 378.135-2.10172 378.11 4.77324 357.486 4.70038ZM385.01-2.07743 405.635-2.00457 405.61 4.87039 384.985 4.79753ZM412.509-1.98028 433.134-1.90742 433.11 4.96753 412.485 4.89467ZM440.009-1.88314 460.634-1.81028 460.61 5.06468 439.985 4.99182ZM467.509-1.78599 488.134-1.71313 488.11 5.16183 467.485 5.08897ZM495.009-1.68885 515.634-1.61599 515.609 5.25897 494.985 5.18611ZM522.509-1.5917 543.134-1.51884 543.109 5.35612 522.484 5.28326ZM550.009-1.49455 570.633-1.42169 570.609 5.45327 549.984 5.3804ZM577.508-1.39741 598.133-1.32455 598.109 5.55041 577.484 5.47755ZM605.008-1.30026 625.633-1.2274 625.609 5.64756 604.984 5.5747ZM632.508-1.20311 653.133-1.13025 653.109 5.7447 632.484 5.67184ZM660.008-1.10597 677.459-1.04432 677.435 5.83064 659.984 5.76899ZM672.944-20.5396 718.696 2.53888 672.782 25.2935Z" transform="matrix(1 0 0 -1 810.5 926.039)"/><text font-family="Times New Roman,Times New Roman_MSFontService,sans-serif" font-weight="400" font-size="73" transform="matrix(1 0 0 1 409.73 1397)">History <tspan font-style="italic" font-size="73" x="238.906" y="0">h</tspan></text><path d="M545.931 1309.52 544.005 1262.54 550.874 1262.26 552.801 1309.24ZM533.888 1267.54 546.5 1239.5 561.365 1266.41Z"/><text font-family="Times New Roman,Times New Roman_MSFontService,sans-serif" font-weight="400" font-size="73" transform="matrix(1 0 0 1 1906.64 1543)">Knowledge </text><path d="M2271.37 1508.5 2296.71 1508.5 2297.39 1510.28 2280.38 1529.81C2277.08 1533.59 2274.22 1536.8 2271.79 1539.43L2272.01 1539.68 2280.06 1539.68C2281.49 1539.68 2282.58 1539.61 2283.34 1539.45 2284.1 1539.3 2284.77 1539.01 2285.34 1538.58 2285.91 1538.15 2286.5 1537.5 2287.1 1536.64 2287.71 1535.77 2288.46 1534.41 2289.37 1532.56L2292.54 1532.56 2290.36 1542.57 2264.56 1542.57 2263.88 1540.83 2283.38 1518.37C2286.14 1515.21 2288.16 1512.96 2289.44 1511.63L2289.22 1511.38 2280.88 1511.38C2279.65 1511.38 2278.74 1511.47 2278.17 1511.63 2277.6 1511.8 2277.03 1512.09 2276.46 1512.51 2275.89 1512.92 2275.28 1513.54 2274.63 1514.36 2273.97 1515.18 2273.24 1516.35 2272.44 1517.87L2269.26 1517.87Z" fill-rule="evenodd"/><text fill="#000000" fill-opacity="0" font-family="Arial,Arial_MSFontService,sans-serif" font-size="34.0762" x="2263.88" y="1538.31">ğ‘§</text><text font-family="Times New Roman,Times New Roman_MSFontService,sans-serif" font-weight="400" font-size="49" transform="matrix(1 0 0 1 2299.77 1560)">1</text><path d="M6.90487e-06-3.4375 156.749-3.43719 156.749 3.43781-6.90487e-06 3.4375ZM152.166-13.7497 179.666 0.000360892 152.166 13.7503Z" transform="matrix(-1 0 0 1 1874.17 1516.5)"/><text font-family="Times New Roman,Times New Roman_MSFontService,sans-serif" font-weight="400" font-size="73" transform="matrix(1 0 0 1 2967.94 1791)">History <tspan font-style="italic" font-size="73" x="238.906" y="0">h</tspan></text><path d="M3.4375-1.40033e-05 3.43777 65.6741-3.43723 65.6741-3.4375 1.40033e-05ZM13.7502 61.0907 0.000360892 88.5908-13.7498 61.0908Z" transform="matrix(1 0 0 -1 3107.5 1704.09)"/><text fill="#C55A11" font-family="Times New Roman,Times New Roman_MSFontService,sans-serif" font-weight="400" font-size="83" transform="matrix(1 0 0 1 3209.51 789)">Response Generator<tspan fill="#4472C4" font-size="83" x="-2112.27" y="0">Knowledge Selector</tspan><tspan fill="#000000" font-size="73" x="635.355" y="665">Response </tspan><tspan fill="#000000" font-style="italic" font-size="73" x="934.99" y="665">r</tspan></text><path d="M3613.5 1262.06 3716.18 1262.06 3716.18 1428.08 3712.75 1424.64 3789.07 1424.64 3789.07 1431.51 3709.31 1431.51 3709.31 1265.5 3712.75 1268.94 3613.5 1268.94ZM3784.49 1414.33 3811.99 1428.08 3784.49 1441.83Z"/><path d="M0-3.4375 343.316-3.4375 343.316 88.5908 339.879 85.1533 417.574 85.1533 417.574 92.0283 336.441 92.0283 336.441 0 339.879 3.4375 0 3.4375ZM412.991 74.8408 440.491 88.5908 412.991 102.341Z" transform="matrix(1 0 0 -1 3371.5 1517.09)"/><path d="M716 887.159C716 883.205 719.205 880 723.159 880L802.841 880C806.795 880 810 883.205 810 887.159L810 963.841C810 967.795 806.795 971 802.841 971L723.159 971C719.205 971 716 967.795 716 963.841Z" fill="#548235" fill-rule="evenodd"/><path d="M1529 884.237C1529 880.24 1532.24 877 1536.24 877L1615.76 877C1619.76 877 1623 880.24 1623 884.237L1623 961.762C1623 965.76 1619.76 969 1615.76 969L1536.24 969C1532.24 969 1529 965.76 1529 961.762Z" fill="#8FAADC" fill-rule="evenodd"/><path d="M1408 1011.16C1408 1007.21 1411.21 1004 1415.16 1004L1494.84 1004C1498.79 1004 1502 1007.21 1502 1011.16L1502 1087.84C1502 1091.8 1498.79 1095 1494.84 1095L1415.16 1095C1411.21 1095 1408 1091.8 1408 1087.84Z" fill="#2F5597" fill-rule="evenodd"/><path d="M1289 1147.24C1289 1143.24 1292.24 1140 1296.24 1140L1375.76 1140C1379.76 1140 1383 1143.24 1383 1147.24L1383 1224.76C1383 1228.76 1379.76 1232 1375.76 1232L1296.24 1232C1292.24 1232 1289 1228.76 1289 1224.76Z" fill="#8FAADC" fill-rule="evenodd"/><path d="M1164 1273.24C1164 1269.24 1167.24 1266 1171.24 1266L1250.76 1266C1254.76 1266 1258 1269.24 1258 1273.24L1258 1350.76C1258 1354.76 1254.76 1358 1250.76 1358L1171.24 1358C1167.24 1358 1164 1354.76 1164 1350.76Z" fill="#2F5597" fill-rule="evenodd"/><path d="M3.43711-0.0514968 4.14075 46.9122-2.73348 47.0152-3.43711 0.0514968ZM14.3834 42.1749 1.04695 69.8778-13.1135 42.5869Z" transform="matrix(1 0 0 -1 762.5 1041.38)"/><path d="M3.4375-1.73508e-05 3.43775 48.5826-3.43725 48.5826-3.4375 1.73508e-05ZM13.7502 43.9992 0.000360892 71.4993-13.7498 43.9993Z" transform="matrix(1 0 0 -1 1576.5 1041)"/><path d="M3.4375-1.7528e-05 3.43774 47.8597-3.43726 47.8598-3.4375 1.7528e-05ZM13.7502 43.2763 0.000360892 70.7764-13.7498 43.2765Z" transform="matrix(1 0 0 -1 1455.5 1166.28)"/><path d="M3.43749-0.00788125 3.5174 34.8439-3.35758 34.8597-3.43749 0.00788125ZM13.8194 30.237 0.132448 57.7684-13.6806 30.3Z" transform="matrix(1 0 0 -1 1336.5 1290.27)"/><path d="M3.4375-2.1743e-05 3.43772 34.1393-3.43728 34.1394-3.4375 2.1743e-05ZM13.7502 29.5559 0.000360892 57.056-13.7498 29.5561Z" transform="matrix(1 0 0 -1 1211.5 1415.56)"/><text font-family="Times New Roman,Times New Roman_MSFontService,sans-serif" font-weight="400" font-size="73" transform="matrix(1 0 0 1 2013.3 1416)">Knowledge </text><path d="M2378.03 1382 2403.37 1382 2404.05 1383.78 2387.04 1403.31C2383.74 1407.09 2380.88 1410.3 2378.45 1412.93L2378.67 1413.18 2386.72 1413.18C2388.15 1413.18 2389.24 1413.11 2390 1412.95 2390.76 1412.8 2391.43 1412.51 2392 1412.08 2392.57 1411.65 2393.16 1411 2393.76 1410.14 2394.37 1409.27 2395.12 1407.91 2396.03 1406.06L2399.2 1406.06 2397.02 1416.07 2371.22 1416.07 2370.54 1414.33 2390.04 1391.87C2392.79 1388.71 2394.81 1386.46 2396.1 1385.13L2395.88 1384.88 2387.54 1384.88C2386.31 1384.88 2385.4 1384.97 2384.83 1385.13 2384.26 1385.3 2383.69 1385.59 2383.12 1386.01 2382.55 1386.42 2381.94 1387.04 2381.29 1387.86 2380.63 1388.68 2379.9 1389.85 2379.1 1391.37L2375.92 1391.37Z" fill-rule="evenodd"/><text fill="#000000" fill-opacity="0" font-family="Arial,Arial_MSFontService,sans-serif" font-size="34.0762" x="2370.54" y="1411.81">ğ‘§</text><text font-family="Times New Roman,Times New Roman_MSFontService,sans-serif" font-weight="400" font-size="49" transform="matrix(1 0 0 1 2406.43 1433)">2</text><path d="M7.5038e-06-3.4375 142.409-3.43719 142.409 3.43781-7.5038e-06 3.4375ZM137.825-13.7497 165.325 0.000360892 137.825 13.7503Z" transform="matrix(-1 0 0 1 1980.82 1390.5)"/><text font-family="Times New Roman,Times New Roman_MSFontService,sans-serif" font-weight="400" font-size="73" transform="matrix(1 0 0 1 2131.12 1294)">Knowledge </text><path d="M2495.85 1259.81 2521.2 1259.81 2521.87 1261.6 2504.87 1281.13C2501.57 1284.91 2498.7 1288.12 2496.28 1290.75L2496.49 1291 2504.55 1291C2505.98 1291 2507.07 1290.93 2507.83 1290.77 2508.59 1290.62 2509.25 1290.33 2509.82 1289.9 2510.4 1289.47 2510.98 1288.82 2511.59 1287.96 2512.2 1287.09 2512.95 1285.73 2513.85 1283.87L2517.02 1283.87 2514.85 1293.89 2489.04 1293.89 2488.37 1292.14 2507.86 1269.69C2510.62 1266.53 2512.64 1264.28 2513.92 1262.95L2513.71 1262.7 2505.37 1262.7C2504.13 1262.7 2503.23 1262.78 2502.66 1262.95 2502.09 1263.12 2501.52 1263.41 2500.95 1263.82 2500.38 1264.24 2499.77 1264.86 2499.11 1265.68 2498.46 1266.5 2497.73 1267.67 2496.92 1269.19L2493.75 1269.19Z" fill-rule="evenodd"/><text fill="#000000" fill-opacity="0" font-family="Arial,Arial_MSFontService,sans-serif" font-size="34.0762" x="2488.37" y="1289.63">ğ‘§</text><text font-family="Times New Roman,Times New Roman_MSFontService,sans-serif" font-weight="400" font-size="49" transform="matrix(1 0 0 1 2524.26 1311)">3</text><path d="M2098.6 1271.42 1959.36 1269.29 1959.47 1262.41 2098.7 1264.55ZM1963.79 1279.67 1936.5 1265.5 1964.21 1252.17Z"/><text font-family="Times New Roman,Times New Roman_MSFontService,sans-serif" font-weight="400" font-size="73" transform="matrix(1 0 0 1 2253.11 1169)">Knowledge </text><path d="M2617.84 1134.63 2643.18 1134.63 2643.86 1136.41 2626.85 1155.94C2623.55 1159.72 2620.69 1162.93 2618.26 1165.57L2618.48 1165.82 2626.53 1165.82C2627.96 1165.82 2629.05 1165.74 2629.81 1165.59 2630.57 1165.43 2631.24 1165.14 2631.81 1164.71 2632.38 1164.28 2632.97 1163.64 2633.57 1162.77 2634.18 1161.9 2634.93 1160.54 2635.84 1158.69L2639.01 1158.69 2636.84 1168.7 2611.03 1168.7 2610.35 1166.96 2629.85 1144.5C2632.61 1141.34 2634.63 1139.1 2635.91 1137.76L2635.69 1137.52 2627.35 1137.52C2626.12 1137.52 2625.22 1137.6 2624.65 1137.76 2624.07 1137.93 2623.5 1138.22 2622.93 1138.64 2622.36 1139.05 2621.75 1139.67 2621.1 1140.49 2620.44 1141.31 2619.71 1142.48 2618.91 1144L2615.73 1144Z" fill-rule="evenodd"/><text fill="#000000" fill-opacity="0" font-family="Arial,Arial_MSFontService,sans-serif" font-size="34.0762" x="2610.35" y="1164.44">ğ‘§</text><text font-family="Times New Roman,Times New Roman_MSFontService,sans-serif" font-weight="400" font-size="49" transform="matrix(1 0 0 1 2646.24 1186)">4</text><path d="M2220.59 1145.9 2080.37 1144.21 2080.46 1137.34 2220.68 1139.03ZM2084.83 1154.58 2057.5 1140.5 2085.16 1127.08Z"/><text font-family="Times New Roman,Times New Roman_MSFontService,sans-serif" font-weight="400" font-size="73" transform="matrix(1 0 0 1 2512.37 1605)">Top<tspan font-size="73" x="118.021" y="0">-</tspan><tspan font-size="73" x="142.656" y="0">K</tspan></text><path d="M1093.43 843.259C1091.96 843.259 1090.41 843.295 1088.79 843.366L1083.95 864.967 1087.65 864.967C1090.53 864.967 1092.85 864.67 1094.62 864.076 1096.39 863.482 1097.84 862.561 1098.97 861.313 1100.1 860.066 1100.97 858.586 1101.59 856.875 1102.21 855.164 1102.52 853.287 1102.52 851.244 1102.52 848.487 1101.82 846.467 1100.41 845.184 1099.01 843.901 1096.68 843.259 1093.43 843.259ZM1078.49 840.122 1094.21 840.122C1097.04 840.122 1099.36 840.342 1101.18 840.782 1103 841.221 1104.5 841.899 1105.67 842.814 1106.85 843.728 1107.73 844.887 1108.31 846.289 1108.89 847.691 1109.18 849.319 1109.18 851.172 1109.18 854.737 1108.34 857.826 1106.65 860.44 1104.97 863.054 1102.68 864.979 1099.79 866.214 1096.9 867.45 1093.44 868.068 1089.4 868.068 1086.98 868.068 1084.96 868.02 1083.34 867.925L1081.06 878.405C1080.85 879.379 1080.7 880.128 1080.61 880.65 1080.53 881.173 1080.46 881.737 1080.4 882.343 1080.34 882.949 1080.31 883.49 1080.31 883.965 1080.31 884.702 1080.43 885.278 1080.67 885.694 1080.91 886.11 1081.26 886.413 1081.74 886.603 1082.21 886.793 1083.03 886.936 1084.2 887.031L1083.8 888.777 1069.15 888.777 1069.55 887.031C1070.45 886.888 1071.13 886.656 1071.58 886.336 1072.03 886.015 1072.41 885.569 1072.72 884.999 1073.03 884.429 1073.31 883.734 1073.57 882.914 1073.84 882.094 1074.23 880.508 1074.75 878.155L1080.81 850.709C1081.33 848.333 1081.59 846.455 1081.59 845.077 1081.59 843.913 1081.32 843.105 1080.77 842.653 1080.23 842.202 1079.34 841.94 1078.1 841.869Z" fill-rule="evenodd"/><text fill="#000000" fill-opacity="0" font-family="Arial,Arial_MSFontService,sans-serif" font-size="48.6548" x="1069.15" y="882.695">ğ‘ƒ</text><path d="M1142.15 837.271 1143.11 840.016C1137.55 841.845 1133.44 845.416 1130.76 850.727 1128.09 856.038 1126.75 862.709 1126.75 870.741 1126.75 879.058 1128.09 885.914 1130.76 891.308 1133.44 896.702 1137.52 900.314 1143.01 902.144L1142.15 904.889C1135.19 903.059 1129.85 899.12 1126.15 893.072 1122.44 887.025 1120.59 879.7 1120.59 871.098 1120.59 862.519 1122.45 855.194 1126.16 849.123 1129.88 843.051 1135.21 839.101 1142.15 837.271Z" fill-rule="evenodd"/><text fill="#000000" fill-opacity="0" font-family="Arial,Arial_MSFontService,sans-serif" font-size="67.6177" x="1120.59" y="896.436">(</text><path d="M1152.91 854.701 1178.25 854.701 1178.93 856.483 1161.93 876.016C1158.63 879.795 1155.76 883.003 1153.34 885.641L1153.55 885.89 1161.61 885.89C1163.03 885.89 1164.13 885.813 1164.89 885.658 1165.65 885.504 1166.31 885.213 1166.88 884.785 1167.45 884.357 1168.04 883.71 1168.65 882.842 1169.25 881.975 1170.01 880.615 1170.91 878.761L1174.08 878.761 1171.91 888.777 1146.1 888.777 1145.43 887.031 1164.92 864.575C1167.68 861.414 1169.7 859.169 1170.98 857.838L1170.77 857.588 1162.43 857.588C1161.19 857.588 1160.29 857.671 1159.72 857.838 1159.15 858.004 1158.58 858.295 1158.01 858.711 1157.44 859.127 1156.83 859.745 1156.17 860.565 1155.52 861.384 1154.79 862.555 1153.98 864.076L1150.81 864.076Z" fill-rule="evenodd"/><text fill="#000000" fill-opacity="0" font-family="Arial,Arial_MSFontService,sans-serif" font-size="34.0762" x="1145.43" y="884.518">ğ‘§</text><path d="M1190.12 837.77 1195.61 837.77 1195.61 904.104 1190.12 904.104Z" fill-rule="evenodd"/><text fill="#000000" fill-opacity="0" font-family="Arial,Arial_MSFontService,sans-serif" font-size="66.3345" x="1190.12" y="895.813">|</text><path d="M1223.38 837.806 1225.44 837.806 1219.31 862.507 1219.74 862.65C1222 859.656 1224.13 857.487 1226.14 856.145 1228.15 854.802 1230.17 854.131 1232.22 854.131 1234.43 854.131 1236.13 854.766 1237.31 856.038 1238.5 857.309 1239.1 859.073 1239.1 861.331 1239.1 862.828 1238.75 864.955 1238.06 867.711L1235.75 877.05C1235.1 879.64 1234.78 881.47 1234.78 882.539 1234.78 883.49 1234.94 884.179 1235.25 884.607 1235.56 885.035 1236.04 885.248 1236.71 885.248 1237.42 885.248 1238.18 884.957 1238.99 884.375 1239.8 883.793 1240.94 882.682 1242.41 881.042L1244.44 883.038C1242.16 885.439 1240.29 887.09 1238.83 887.993 1237.37 888.896 1235.72 889.348 1233.89 889.348 1232.35 889.348 1231.12 888.801 1230.2 887.708 1229.29 886.615 1228.83 885.201 1228.83 883.466 1228.83 881.922 1229.22 879.652 1230.01 876.658L1231.54 870.492C1232.09 868.282 1232.45 866.624 1232.64 865.519 1232.83 864.414 1232.93 863.553 1232.93 862.935 1232.93 861.248 1232.66 860.054 1232.11 859.353 1231.56 858.652 1230.67 858.301 1229.44 858.301 1228.46 858.301 1227.38 858.705 1226.19 859.513 1225 860.321 1223.76 861.551 1222.45 863.202 1221.14 864.854 1220.1 866.434 1219.33 867.943 1218.56 869.452 1217.95 871.252 1217.5 873.343L1214.25 888.777 1208.09 888.777 1217.25 848.036C1217.82 845.493 1218.1 843.734 1218.1 842.76 1218.1 841.762 1217.8 841.061 1217.19 840.657 1216.59 840.253 1215.5 840.027 1213.93 839.98L1214.36 838.126Z" fill-rule="evenodd"/><text fill="#000000" fill-opacity="0" font-family="Arial,Arial_MSFontService,sans-serif" font-size="51.542" x="1208.09" y="882.905">â„</text><path d="M1249.06 837.271C1256 839.101 1261.33 843.051 1265.05 849.123 1268.77 855.194 1270.63 862.519 1270.63 871.098 1270.63 879.7 1268.77 887.025 1265.06 893.072 1261.36 899.12 1256.02 903.059 1249.06 904.889L1248.2 902.144C1253.69 900.314 1257.78 896.702 1260.45 891.308 1263.12 885.914 1264.46 879.058 1264.46 870.741 1264.46 862.709 1263.13 856.038 1260.47 850.727 1257.81 845.416 1253.68 841.845 1248.1 840.016Z" fill-rule="evenodd"/><text fill="#000000" fill-opacity="0" font-family="Arial,Arial_MSFontService,sans-serif" font-size="67.6177" x="1248.1" y="896.436">)</text><path d="M3432.22 1555.66C3430.75 1555.66 3429.2 1555.69 3427.58 1555.77L3422.74 1577.37 3426.44 1577.37C3429.32 1577.37 3431.64 1577.07 3433.41 1576.48 3435.18 1575.88 3436.63 1574.96 3437.76 1573.71 3438.89 1572.47 3439.76 1570.99 3440.38 1569.28 3441 1567.56 3441.31 1565.69 3441.31 1563.64 3441.31 1560.89 3440.61 1558.87 3439.2 1557.58 3437.8 1556.3 3435.47 1555.66 3432.22 1555.66ZM3417.28 1552.52 3433 1552.52C3435.83 1552.52 3438.15 1552.74 3439.97 1553.18 3441.79 1553.62 3443.29 1554.3 3444.46 1555.21 3445.64 1556.13 3446.52 1557.29 3447.1 1558.69 3447.68 1560.09 3447.97 1561.72 3447.97 1563.57 3447.97 1567.14 3447.13 1570.23 3445.44 1572.84 3443.76 1575.45 3441.47 1577.38 3438.58 1578.61 3435.69 1579.85 3432.23 1580.47 3428.19 1580.47 3425.77 1580.47 3423.75 1580.42 3422.13 1580.33L3419.85 1590.8C3419.64 1591.78 3419.49 1592.53 3419.4 1593.05 3419.32 1593.57 3419.25 1594.14 3419.19 1594.74 3419.13 1595.35 3419.1 1595.89 3419.1 1596.37 3419.1 1597.1 3419.22 1597.68 3419.46 1598.09 3419.7 1598.51 3420.05 1598.81 3420.53 1599 3421 1599.19 3421.82 1599.34 3422.99 1599.43L3422.59 1601.18 3407.94 1601.18 3408.34 1599.43C3409.24 1599.29 3409.92 1599.06 3410.37 1598.74 3410.82 1598.41 3411.2 1597.97 3411.51 1597.4 3411.82 1596.83 3412.1 1596.13 3412.36 1595.31 3412.63 1594.49 3413.02 1592.91 3413.54 1590.56L3419.6 1563.11C3420.12 1560.73 3420.38 1558.86 3420.38 1557.48 3420.38 1556.31 3420.11 1555.5 3419.56 1555.05 3419.02 1554.6 3418.13 1554.34 3416.89 1554.27Z" fill-rule="evenodd"/><text fill="#000000" fill-opacity="0" font-family="Arial,Arial_MSFontService,sans-serif" font-size="48.6548" x="3407.94" y="1595.1">ğ‘ƒ</text><path d="M3480.94 1549.67 3481.9 1552.42C3476.34 1554.25 3472.23 1557.82 3469.55 1563.13 3466.88 1568.44 3465.54 1575.11 3465.54 1583.14 3465.54 1591.46 3466.88 1598.31 3469.55 1603.71 3472.23 1609.1 3476.31 1612.71 3481.8 1614.54L3480.94 1617.29C3473.98 1615.46 3468.64 1611.52 3464.94 1605.47 3461.23 1599.42 3459.38 1592.1 3459.38 1583.5 3459.38 1574.92 3461.24 1567.59 3464.96 1561.52 3468.67 1555.45 3474 1551.5 3480.94 1549.67Z" fill-rule="evenodd"/><text fill="#000000" fill-opacity="0" font-family="Arial,Arial_MSFontService,sans-serif" font-size="67.6177" x="3459.38" y="1608.84">(</text><path d="M3494.52 1566.5C3496.01 1566.5 3497.2 1566.99 3498.06 1567.97 3498.93 1568.96 3499.37 1570.25 3499.37 1571.84 3499.37 1573.03 3499.14 1574.25 3498.69 1575.51L3499.15 1575.69C3501.48 1572.53 3503.72 1570.21 3505.87 1568.74 3508.02 1567.27 3510.2 1566.53 3512.41 1566.53 3514.15 1566.53 3515.6 1566.66 3516.76 1566.92L3515.05 1574.91 3511.38 1574.91C3511.24 1573.91 3511.03 1573.14 3510.77 1572.59 3510.51 1572.04 3510.2 1571.66 3509.84 1571.45 3509.49 1571.24 3509.04 1571.13 3508.49 1571.13 3507.64 1571.13 3506.7 1571.5 3505.69 1572.23 3504.68 1572.97 3503.55 1574.12 3502.29 1575.69 3501.03 1577.26 3500.02 1578.77 3499.28 1580.22 3498.53 1581.67 3497.9 1583.51 3497.41 1585.74L3494.02 1601.18 3487.85 1601.18 3493.02 1578.58C3493.35 1577.15 3493.57 1576.05 3493.66 1575.26 3493.76 1574.48 3493.8 1573.83 3493.8 1573.3 3493.8 1572.35 3493.65 1571.66 3493.34 1571.24 3493.03 1570.81 3492.55 1570.59 3491.88 1570.59 3491.14 1570.59 3490.37 1570.9 3489.55 1571.5 3488.73 1572.11 3487.6 1573.21 3486.18 1574.8L3484.15 1572.8C3486.33 1570.52 3488.16 1568.9 3489.63 1567.94 3491.11 1566.98 3492.74 1566.5 3494.52 1566.5Z" fill-rule="evenodd"/><text fill="#000000" fill-opacity="0" font-family="Arial,Arial_MSFontService,sans-serif" font-size="34.6821" x="3484.15" y="1596.84">ğ‘Ÿ</text><path d="M3528.68 1550.17 3534.17 1550.17 3534.17 1616.5 3528.68 1616.5Z" fill-rule="evenodd"/><text fill="#000000" fill-opacity="0" font-family="Arial,Arial_MSFontService,sans-serif" font-size="66.3345" x="3528.68" y="1608.21">|</text><path d="M3551.74 1567.1 3577.09 1567.1 3577.76 1568.88 3560.76 1588.42C3557.46 1592.19 3554.59 1595.4 3552.17 1598.04L3552.39 1598.29 3560.44 1598.29C3561.87 1598.29 3562.96 1598.21 3563.72 1598.06 3564.48 1597.9 3565.15 1597.61 3565.72 1597.19 3566.29 1596.76 3566.87 1596.11 3567.48 1595.24 3568.09 1594.38 3568.84 1593.01 3569.74 1591.16L3572.92 1591.16 3570.74 1601.18 3544.94 1601.18 3544.26 1599.43 3563.76 1576.97C3566.51 1573.81 3568.53 1571.57 3569.82 1570.24L3569.6 1569.99 3561.26 1569.99C3560.02 1569.99 3559.12 1570.07 3558.55 1570.24 3557.98 1570.4 3557.41 1570.7 3556.84 1571.11 3556.27 1571.53 3555.66 1572.14 3555 1572.96 3554.35 1573.78 3553.62 1574.95 3552.81 1576.48L3549.64 1576.48Z" fill-rule="evenodd"/><text fill="#000000" fill-opacity="0" font-family="Arial,Arial_MSFontService,sans-serif" font-size="34.0762" x="3544.26" y="1596.92">ğ‘§</text><path d="M3584.92 1592.91 3591.16 1592.91C3591.5 1594.57 3591.66 1596.21 3591.66 1597.83 3591.66 1599.49 3591.38 1601.01 3590.81 1602.39 3590.24 1603.77 3589.33 1605.14 3588.08 1606.51 3586.83 1607.87 3585.11 1609.38 3582.93 1611.02L3581 1608.84C3582.22 1607.7 3583.09 1606.67 3583.64 1605.76 3584.19 1604.84 3584.58 1603.8 3584.82 1602.64 3585.06 1601.47 3585.17 1600.01 3585.17 1598.25 3585.17 1596.45 3585.09 1594.67 3584.92 1592.91Z" fill-rule="evenodd"/><text fill="#000000" fill-opacity="0" font-family="Arial,Arial_MSFontService,sans-serif" font-size="18.1074" x="3581" y="1608.75">,</text><path d="M3625.83 1550.21 3627.9 1550.21 3621.77 1574.91 3622.19 1575.05C3624.45 1572.06 3626.58 1569.89 3628.59 1568.54 3630.6 1567.2 3632.63 1566.53 3634.67 1566.53 3636.88 1566.53 3638.58 1567.17 3639.77 1568.44 3640.95 1569.71 3641.55 1571.47 3641.55 1573.73 3641.55 1575.23 3641.2 1577.35 3640.52 1580.11L3638.2 1589.45C3637.56 1592.04 3637.24 1593.87 3637.24 1594.94 3637.24 1595.89 3637.39 1596.58 3637.7 1597.01 3638.01 1597.43 3638.5 1597.65 3639.16 1597.65 3639.87 1597.65 3640.63 1597.36 3641.44 1596.78 3642.25 1596.19 3643.39 1595.08 3644.86 1593.44L3646.9 1595.44C3644.61 1597.84 3642.74 1599.49 3641.28 1600.39 3639.82 1601.3 3638.17 1601.75 3636.34 1601.75 3634.8 1601.75 3633.57 1601.2 3632.66 1600.11 3631.74 1599.01 3631.28 1597.6 3631.28 1595.87 3631.28 1594.32 3631.68 1592.05 3632.46 1589.06L3633.99 1582.89C3634.54 1580.68 3634.91 1579.02 3635.1 1577.92 3635.29 1576.81 3635.38 1575.95 3635.38 1575.33 3635.38 1573.65 3635.11 1572.45 3634.56 1571.75 3634.02 1571.05 3633.12 1570.7 3631.89 1570.7 3630.91 1570.7 3629.83 1571.11 3628.65 1571.91 3627.46 1572.72 3626.21 1573.95 3624.9 1575.6 3623.6 1577.25 3622.56 1578.83 3621.78 1580.34 3621.01 1581.85 3620.4 1583.65 3619.95 1585.74L3616.7 1601.18 3610.54 1601.18 3619.7 1560.44C3620.27 1557.89 3620.55 1556.13 3620.55 1555.16 3620.55 1554.16 3620.25 1553.46 3619.65 1553.06 3619.04 1552.65 3617.95 1552.43 3616.38 1552.38L3616.81 1550.53Z" fill-rule="evenodd"/><text fill="#000000" fill-opacity="0" font-family="Arial,Arial_MSFontService,sans-serif" font-size="51.542" x="3610.54" y="1595.3">â„</text><path d="M3651.51 1549.67C3658.45 1551.5 3663.78 1555.45 3667.5 1561.52 3671.22 1567.59 3673.08 1574.92 3673.08 1583.5 3673.08 1592.1 3671.22 1599.42 3667.52 1605.47 3663.81 1611.52 3658.48 1615.46 3651.51 1617.29L3650.66 1614.54C3656.15 1612.71 3660.23 1609.1 3662.9 1603.71 3665.57 1598.31 3666.91 1591.46 3666.91 1583.14 3666.91 1575.11 3665.58 1568.44 3662.92 1563.13 3660.26 1557.82 3656.14 1554.25 3650.55 1552.42Z" fill-rule="evenodd"/><text fill="#000000" fill-opacity="0" font-family="Arial,Arial_MSFontService,sans-serif" font-size="67.6177" x="3650.55" y="1608.84">)</text></g></svg>