<svg width="2223" height="1107" xmlns="http://www.w3.org/2000/svg" xmlns:xlink="http://www.w3.org/1999/xlink" overflow="hidden"><defs><clipPath id="clip0"><rect x="1289" y="736" width="2223" height="1107"/></clipPath></defs><g clip-path="url(#clip0)" transform="translate(-1289 -736)"><path d="M1316 780.167C1316 771.79 1322.79 765 1331.17 765L1420.83 765C1429.21 765 1436 771.79 1436 780.167L1436 840.833C1436 849.209 1429.21 856 1420.83 856L1331.17 856C1322.79 856 1316 849.209 1316 840.833Z" fill="#70AD47" fill-rule="evenodd"/><path d="M2406 780.167C2406 771.79 2412.79 765 2421.17 765L2510.83 765C2519.21 765 2526 771.79 2526 780.167L2526 840.833C2526 849.209 2519.21 856 2510.83 856L2421.17 856C2412.79 856 2406 849.209 2406 840.833Z" fill="#5B9BD5" fill-rule="evenodd"/><text font-family="Times New Roman,Times New Roman_MSFontService,sans-serif" font-weight="400" font-size="83" transform="matrix(1 0 0 1 1468.72 842)">Trainable Representations<tspan font-size="83" x="1090.14" y="1">Frozen Representations</tspan></text><path d="M2276 1188.17C2276 1179.79 2282.79 1173 2291.17 1173L2380.83 1173C2389.21 1173 2396 1179.79 2396 1188.17L2396 1248.83C2396 1257.21 2389.21 1264 2380.83 1264L2291.17 1264C2282.79 1264 2276 1257.21 2276 1248.83Z" fill="#70AD47" fill-rule="evenodd"/><path d="M2445 1188.17C2445 1179.79 2451.79 1173 2460.17 1173L2549.83 1173C2558.21 1173 2565 1179.79 2565 1188.17L2565 1248.83C2565 1257.21 2558.21 1264 2549.83 1264L2460.17 1264C2451.79 1264 2445 1257.21 2445 1248.83Z" fill="#70AD47" fill-rule="evenodd"/><path d="M2614 1188.17C2614 1179.79 2620.79 1173 2629.17 1173L2718.83 1173C2727.21 1173 2734 1179.79 2734 1188.17L2734 1248.83C2734 1257.21 2727.21 1264 2718.83 1264L2629.17 1264C2620.79 1264 2614 1257.21 2614 1248.83Z" fill="#5B9BD5" fill-rule="evenodd"/><path d="M2783 1188.17C2783 1179.79 2789.79 1173 2798.17 1173L2887.83 1173C2896.21 1173 2903 1179.79 2903 1188.17L2903 1248.83C2903 1257.21 2896.21 1264 2887.83 1264L2798.17 1264C2789.79 1264 2783 1257.21 2783 1248.83Z" fill="#5B9BD5" fill-rule="evenodd"/><path d="M2955 1188.17C2955 1179.79 2961.79 1173 2970.17 1173L3059.83 1173C3068.21 1173 3075 1179.79 3075 1188.17L3075 1248.83C3075 1257.21 3068.21 1264 3059.83 1264L2970.17 1264C2961.79 1264 2955 1257.21 2955 1248.83Z" fill="#5B9BD5" fill-rule="evenodd"/><path d="M2276 1396C2276 1387.72 2282.72 1381 2291 1381L2381 1381C2389.28 1381 2396 1387.72 2396 1396L2396 1456C2396 1464.28 2389.28 1471 2381 1471L2291 1471C2282.72 1471 2276 1464.28 2276 1456Z" fill="#70AD47" fill-rule="evenodd"/><path d="M2445 1396C2445 1387.72 2451.72 1381 2460 1381L2550 1381C2558.28 1381 2565 1387.72 2565 1396L2565 1456C2565 1464.28 2558.28 1471 2550 1471L2460 1471C2451.72 1471 2445 1464.28 2445 1456Z" fill="#70AD47" fill-rule="evenodd"/><path d="M2614 1396C2614 1387.72 2620.72 1381 2629 1381L2719 1381C2727.28 1381 2734 1387.72 2734 1396L2734 1456C2734 1464.28 2727.28 1471 2719 1471L2629 1471C2620.72 1471 2614 1464.28 2614 1456Z" fill="#5B9BD5" fill-rule="evenodd"/><path d="M2783 1396C2783 1387.72 2789.72 1381 2798 1381L2888 1381C2896.28 1381 2903 1387.72 2903 1396L2903 1456C2903 1464.28 2896.28 1471 2888 1471L2798 1471C2789.72 1471 2783 1464.28 2783 1456Z" fill="#5B9BD5" fill-rule="evenodd"/><path d="M2955 1396C2955 1387.72 2961.72 1381 2970 1381L3060 1381C3068.28 1381 3075 1387.72 3075 1396L3075 1456C3075 1464.28 3068.28 1471 3060 1471L2970 1471C2961.72 1471 2955 1464.28 2955 1456Z" fill="#5B9BD5" fill-rule="evenodd"/><path d="M2276 981C2276 972.716 2282.72 966 2291 966L2381 966C2389.28 966 2396 972.716 2396 981L2396 1041C2396 1049.28 2389.28 1056 2381 1056L2291 1056C2282.72 1056 2276 1049.28 2276 1041Z" fill="#70AD47" fill-rule="evenodd"/><path d="M2445 981C2445 972.716 2451.72 966 2460 966L2550 966C2558.28 966 2565 972.716 2565 981L2565 1041C2565 1049.28 2558.28 1056 2550 1056L2460 1056C2451.72 1056 2445 1049.28 2445 1041Z" fill="#70AD47" fill-rule="evenodd"/><path d="M2614 981C2614 972.716 2620.72 966 2629 966L2719 966C2727.28 966 2734 972.716 2734 981L2734 1041C2734 1049.28 2727.28 1056 2719 1056L2629 1056C2620.72 1056 2614 1049.28 2614 1041Z" fill="#5B9BD5" fill-rule="evenodd"/><path d="M2783 981C2783 972.716 2789.72 966 2798 966L2888 966C2896.28 966 2903 972.716 2903 981L2903 1041C2903 1049.28 2896.28 1056 2888 1056L2798 1056C2789.72 1056 2783 1049.28 2783 1041Z" fill="#5B9BD5" fill-rule="evenodd"/><path d="M2955 981C2955 972.716 2961.72 966 2970 966L3060 966C3068.28 966 3075 972.716 3075 981L3075 1041C3075 1049.28 3068.28 1056 3060 1056L2970 1056C2961.72 1056 2955 1049.28 2955 1041Z" fill="#5B9BD5" fill-rule="evenodd"/><path d="M2333.12 1380.72 2333.71 1377.46 2335.58 1373.87 2338.41 1370.67 2342.09 1367.62 2346.58 1364.74 2351.8 1362 2357.71 1359.3 2364.5 1356.61 2371.93 1354.07 2380.09 1351.54 2388.87 1349.08 2398.37 1346.68 2408.43 1344.29 2419.07 1342.03 2430.31 1339.89 2441.97 1337.76 2454.21 1335.75 2466.94 1333.81 2480.04 1331.99 2493.59 1330.23 2521.72 1327.16 2551.03 1324.47 2581.42 1322.34 2612.55 1320.78 2644.12 1319.77 2675.97 1319.46 2707.72 1319.15 2707.64 1319.15 2739.2 1318.15 2739.14 1318.15 2770.14 1316.59 2770.07 1316.59 2800.38 1314.47 2800.31 1314.47 2829.62 1311.79 2829.56 1311.79 2857.63 1308.73 2857.56 1308.74 2870.99 1306.99 2870.96 1306.99 2884.03 1305.18 2883.98 1305.19 2896.67 1303.25 2896.63 1303.26 2908.82 1301.26 2908.76 1301.27 2920.45 1299.14 2920.42 1299.15 2931.54 1297.02 2931.47 1297.04 2942.03 1294.79 2941.98 1294.8 2951.98 1292.49 2951.89 1292.51 2961.33 1290.07 2961.26 1290.09 2969.95 1287.65 2969.86 1287.68 2977.92 1285.18 2977.83 1285.21 2985.14 1282.71 2984.98 1282.76 2991.61 1280.14 2990.85 1280.56 2996.12 1276.72 3000.17 1282.28 2994.55 1286.37 2987.44 1289.19 2980 1291.73 2971.85 1294.26 2963.08 1296.72 2953.57 1299.17 2943.5 1301.5 2932.87 1303.77 2921.69 1305.9 2909.96 1308.03 2897.73 1310.04 2885 1311.99 2871.9 1313.8 2858.41 1315.56 2830.28 1318.63 2800.9 1321.32 2770.52 1323.45 2739.45 1325.02 2707.82 1326.02 2676.03 1326.33 2644.22 1326.65 2644.3 1326.65 2612.8 1327.65 2612.86 1327.64 2581.8 1329.21 2581.87 1329.2 2551.55 1331.33 2551.63 1331.32 2522.38 1334.01 2522.44 1334 2494.37 1337.06 2494.44 1337.06 2480.94 1338.81 2480.97 1338.8 2467.91 1340.61 2467.96 1340.61 2455.27 1342.55 2455.31 1342.54 2443.12 1344.54 2443.18 1344.53 2431.56 1346.65 2431.58 1346.65 2420.39 1348.77 2420.47 1348.76 2409.9 1351.01 2409.98 1350.99 2399.98 1353.37 2400.03 1353.36 2390.59 1355.73 2390.68 1355.71 2381.99 1358.14 2382.08 1358.12 2374.02 1360.62 2374.11 1360.59 2366.8 1363.09 2366.95 1363.03 2360.33 1365.66 2360.49 1365.59 2354.74 1368.21 2354.91 1368.13 2349.91 1370.75 2350.17 1370.6 2345.98 1373.29 2346.32 1373.04 2343.01 1375.79 2343.39 1375.42 2341.01 1378.11 2341.48 1377.43 2340.05 1380.18 2340.38 1379.2 2339.88 1381.95ZM2985.66 1272.13 3015.44 1264.46 3003.71 1292.88Z" fill="#70AD47"/><path d="M2502.12 1380.7 2502.59 1378.21 2504.09 1375.3 2506.39 1372.76 2509.24 1370.47 2512.66 1368.29 2516.63 1366.24 2521.11 1364.22 2526.26 1362.23 2531.87 1360.32 2537.98 1358.41 2544.63 1356.63 2551.76 1354.81 2559.33 1353.1 2567.33 1351.4 2575.76 1349.83 2584.62 1348.26 2603.32 1345.31 2623.34 1342.67 2644.47 1340.41 2666.54 1338.41 2689.36 1336.84 2712.74 1335.71 2736.49 1334.96 2760.4 1334.71 2760.37 1334.71 2784.25 1334.27 2784.14 1334.28 2807.83 1333.09 2807.71 1333.1 2830.96 1331.1 2830.85 1331.11 2853.6 1328.42 2853.48 1328.44 2875.48 1325.06 2875.38 1325.08 2896.44 1321.2 2896.31 1321.23 2916.24 1316.73 2916.12 1316.76 2934.81 1311.82 2934.68 1311.86 2943.43 1309.17 2943.39 1309.19 2951.76 1306.5 2951.64 1306.54 2959.58 1303.67 2959.5 1303.7 2967 1300.76 2966.91 1300.8 2973.97 1297.8 2973.86 1297.84 2980.42 1294.78 2980.26 1294.86 2986.26 1291.67 2986.17 1291.73 2991.73 1288.54 2991.55 1288.65 2996.48 1285.4 2995.72 1286.09 2999.74 1281.2 3005.05 1285.57 3000.7 1290.86 2995.24 1294.45 2989.54 1297.72 2983.41 1300.97 2976.71 1304.1 2969.55 1307.14 2961.96 1310.11 2953.92 1313.03 2945.47 1315.74 2936.63 1318.45 2917.82 1323.42 2897.75 1327.95 2876.57 1331.85 2854.46 1335.24 2831.6 1337.94 2808.23 1339.95 2784.43 1341.15 2760.49 1341.58 2736.6 1341.83 2736.67 1341.83 2712.98 1342.58 2713.04 1342.58 2689.73 1343.71 2689.8 1343.7 2667.05 1345.26 2667.12 1345.26 2645.12 1347.26 2645.18 1347.25 2624.12 1349.5 2624.2 1349.49 2604.26 1352.12 2604.35 1352.11 2585.72 1355.04 2585.79 1355.03 2576.98 1356.59 2577.01 1356.59 2568.63 1358.15 2568.71 1358.13 2560.78 1359.82 2560.82 1359.81 2553.32 1361.5 2553.42 1361.48 2546.35 1363.29 2546.39 1363.28 2539.82 1365.03 2539.96 1364.99 2533.96 1366.87 2534.05 1366.84 2528.55 1368.71 2528.68 1368.67 2523.68 1370.6 2523.85 1370.53 2519.53 1372.47 2519.7 1372.39 2515.95 1374.33 2516.23 1374.17 2513.1 1376.17 2513.4 1375.96 2510.9 1377.96 2511.3 1377.58 2509.48 1379.58 2509.99 1378.85 2508.93 1380.91 2509.25 1379.97 2508.88 1381.97ZM2988.45 1279.42 3015.31 1264.46 3011.16 1294.92Z" fill="#70AD47"/><path d="M3.4375-1.06183e-05 3.43779 93.9165-3.43721 93.9165-3.4375 1.06183e-05ZM13.7503 89.3331 0.000360892 116.833-13.7497 89.3332Z" fill="#5B9BD5" transform="matrix(1 0 0 -1 3015.5 1381.33)"/><path d="M2502.11 1172.75 2502.57 1170.06 2504.04 1167.13 2506.29 1164.41 2509.16 1161.97 2512.56 1159.66 2516.53 1157.41 2521.04 1155.26 2526.19 1153.13 2531.81 1151.09 2537.91 1149.05 2544.57 1147.09 2551.72 1145.19 2559.28 1143.36 2567.28 1141.54 2575.71 1139.84 2584.58 1138.14 2603.29 1135 2623.31 1132.24 2644.45 1129.73 2666.52 1127.66 2689.34 1125.97 2712.72 1124.71 2736.49 1123.9 2760.4 1123.65 2760.38 1123.65 2784.26 1123.27 2784.14 1123.28 2807.83 1122.09 2807.71 1122.1 2830.96 1120.16 2830.87 1120.17 2853.62 1117.61 2853.51 1117.62 2875.51 1114.43 2875.39 1114.45 2896.45 1110.64 2896.35 1110.66 2916.28 1106.41 2916.15 1106.44 2934.84 1101.69 2934.72 1101.72 2943.47 1099.16 2943.41 1099.18 2951.78 1096.55 2951.71 1096.58 2959.65 1093.89 2959.54 1093.93 2967.04 1091.12 2966.95 1091.15 2974.02 1088.28 2973.88 1088.33 2980.45 1085.33 2980.34 1085.39 2986.34 1082.39 2986.22 1082.45 2991.78 1079.39 2991.6 1079.49 2996.54 1076.37 2995.7 1077.11 2999.17 1072.83 3004.51 1077.16 3000.69 1081.87 2995.19 1085.36 2989.47 1088.5 2983.36 1091.56 2976.68 1094.62 2969.5 1097.54 2961.91 1100.39 2953.88 1103.1 2945.43 1105.75 2936.59 1108.34 2917.78 1113.12 2897.73 1117.4 2876.55 1121.23 2854.44 1124.43 2831.59 1127.01 2808.23 1128.95 2784.43 1130.15 2760.48 1130.52 2736.6 1130.77 2736.68 1130.77 2712.99 1131.58 2713.06 1131.58 2689.75 1132.83 2689.82 1132.83 2667.07 1134.51 2667.13 1134.51 2645.13 1136.57 2645.22 1136.56 2624.16 1139.06 2624.22 1139.05 2604.28 1141.8 2604.38 1141.79 2585.76 1144.91 2585.83 1144.9 2577.02 1146.59 2577.05 1146.58 2568.68 1148.27 2568.77 1148.25 2560.83 1150.06 2560.87 1150.05 2553.37 1151.86 2553.44 1151.84 2546.38 1153.72 2546.47 1153.69 2539.91 1155.63 2540.02 1155.6 2534.02 1157.6 2534.11 1157.57 2528.61 1159.57 2528.75 1159.51 2523.75 1161.57 2523.92 1161.5 2519.61 1163.56 2519.82 1163.45 2516.07 1165.58 2516.31 1165.43 2513.18 1167.55 2513.48 1167.33 2510.98 1169.45 2511.4 1169.03 2509.58 1171.22 2510.01 1170.56 2508.95 1172.68 2509.26 1171.73 2508.89 1173.92ZM2988.02 1070.62 3015.31 1056.46 3010.27 1086.79Z" fill="#70AD47"/><path d="M2333.12 1172.72 2333.71 1169.46 2335.58 1165.87 2338.41 1162.67 2342.09 1159.62 2346.58 1156.74 2351.8 1154 2357.71 1151.3 2364.5 1148.61 2371.93 1146.07 2380.09 1143.54 2388.87 1141.07 2398.37 1138.68 2408.43 1136.29 2419.07 1134.03 2430.31 1131.89 2441.98 1129.76 2454.21 1127.75 2466.94 1125.81 2480.04 1123.99 2493.59 1122.23 2521.72 1119.16 2551.03 1116.47 2581.42 1114.34 2612.55 1112.77 2644.12 1111.77 2675.97 1111.46 2707.72 1111.15 2707.64 1111.15 2739.2 1110.15 2739.14 1110.15 2770.14 1108.59 2770.07 1108.59 2800.38 1106.47 2800.31 1106.47 2829.62 1103.79 2829.56 1103.79 2857.63 1100.73 2857.56 1100.74 2870.99 1098.99 2870.97 1098.99 2884.03 1097.18 2883.98 1097.19 2896.67 1095.25 2896.63 1095.26 2908.82 1093.26 2908.76 1093.27 2920.45 1091.14 2920.42 1091.15 2931.54 1089.02 2931.47 1089.04 2942.03 1086.79 2941.98 1086.8 2951.98 1084.49 2951.89 1084.51 2961.33 1082.07 2961.26 1082.09 2969.95 1079.65 2969.86 1079.68 2977.92 1077.18 2977.83 1077.21 2985.14 1074.71 2984.98 1074.76 2991.61 1072.14 2990.85 1072.56 2996.12 1068.72 3000.17 1074.28 2994.55 1078.37 2987.44 1081.19 2980 1083.73 2971.85 1086.26 2963.08 1088.72 2953.57 1091.17 2943.5 1093.5 2932.87 1095.77 2921.69 1097.9 2909.96 1100.03 2897.73 1102.04 2885 1103.99 2871.9 1105.8 2858.41 1107.56 2830.28 1110.63 2800.9 1113.32 2770.52 1115.45 2739.45 1117.02 2707.82 1118.02 2676.03 1118.33 2644.22 1118.65 2644.3 1118.65 2612.8 1119.65 2612.86 1119.64 2581.8 1121.21 2581.87 1121.2 2551.55 1123.33 2551.63 1123.32 2522.38 1126.01 2522.44 1126 2494.37 1129.06 2494.44 1129.06 2480.94 1130.81 2480.97 1130.8 2467.91 1132.61 2467.96 1132.61 2455.27 1134.55 2455.31 1134.54 2443.12 1136.54 2443.18 1136.53 2431.56 1138.65 2431.58 1138.65 2420.39 1140.77 2420.47 1140.76 2409.9 1143.01 2409.98 1142.99 2399.98 1145.37 2400.03 1145.36 2390.59 1147.73 2390.68 1147.71 2381.99 1150.14 2382.08 1150.12 2374.02 1152.62 2374.11 1152.59 2366.8 1155.09 2366.95 1155.03 2360.33 1157.66 2360.49 1157.59 2354.74 1160.21 2354.91 1160.13 2349.91 1162.75 2350.17 1162.6 2345.98 1165.29 2346.32 1165.04 2343.01 1167.79 2343.39 1167.42 2341.01 1170.11 2341.48 1169.43 2340.05 1172.18 2340.38 1171.2 2339.88 1173.95ZM2985.66 1064.13 3015.44 1056.46 3003.71 1084.88Z" fill="#70AD47"/><path d="M3012.06 1173.33 3012.06 1079.42 3018.94 1079.42 3018.94 1173.33ZM3001.75 1084 3015.5 1056.5 3029.25 1084Z" fill="#5B9BD5"/><path d="M2671.1 1172.83 2671.42 1170.65 2672.51 1168.3 2674.05 1166.11 2676.04 1164.12 2678.45 1162.27 2681.18 1160.5 2684.23 1158.84 2687.73 1157.12 2695.71 1153.97 2704.96 1150.97 2715.43 1148.18 2727.05 1145.59 2739.59 1143.14 2753 1140.99 2767.21 1139.11 2781.98 1137.48 2797.25 1136.16 2812.89 1135.21 2828.79 1134.58 2844.83 1134.4 2844.78 1134.4 2860.72 1133.96 2860.51 1133.97 2876.33 1132.6 2876.15 1132.62 2891.77 1130.43 2891.58 1130.46 2906.77 1127.46 2906.6 1127.5 2921.29 1123.81 2921.12 1123.86 2935.18 1119.55 2935 1119.61 2948.37 1114.67 2948.17 1114.75 2960.61 1109.25 2960.42 1109.35 2971.85 1103.41 2971.64 1103.53 2982.01 1097.16 2981.76 1097.33 2990.82 1090.58 2990.57 1090.78 2998.32 1083.78 2998.09 1084.02 3001.4 1080.39 3000.84 1081.21 3003.31 1076.11 3009.5 1079.1 3006.81 1084.66 3003.05 1088.77 2995.06 1095.99 2985.74 1102.93 2975.13 1109.45 2963.49 1115.5 2950.85 1121.08 2937.29 1126.09 2923.05 1130.46 2908.19 1134.19 2892.82 1137.23 2877.01 1139.44 2861.01 1140.83 2844.94 1141.27 2828.92 1141.46 2829.01 1141.46 2813.2 1142.08 2813.27 1142.08 2797.71 1143.02 2797.8 1143.01 2782.61 1144.32 2782.69 1144.31 2768 1145.94 2768.08 1145.93 2753.95 1147.8 2754.04 1147.79 2740.73 1149.92 2740.85 1149.89 2728.41 1152.33 2728.5 1152.31 2717 1154.88 2717.14 1154.84 2706.82 1157.59 2707 1157.54 2697.93 1160.48 2698.14 1160.41 2690.39 1163.47 2690.64 1163.36 2687.33 1164.98 2687.45 1164.92 2684.58 1166.48 2684.81 1166.34 2682.31 1167.97 2682.53 1167.81 2680.4 1169.44 2680.74 1169.14 2679.12 1170.76 2679.5 1170.31 2678.31 1172 2678.62 1171.46 2677.87 1173.09 2678.15 1172.15 2677.9 1173.84ZM2991.95 1076.52 3015.25 1056.46 3017.32 1087.14Z" fill="#5B9BD5"/><path d="M2671.11 1380.77 2671.44 1378.79 2672.57 1376.44 2674.16 1374.43 2676.15 1372.59 2678.56 1370.89 2681.28 1369.26 2684.36 1367.72 2687.85 1366.2 2695.8 1363.32 2705.04 1360.58 2715.49 1358.04 2727.1 1355.58 2739.64 1353.44 2753.03 1351.43 2767.25 1349.67 2782.01 1348.22 2797.27 1347.03 2812.9 1346.15 2828.79 1345.58 2844.83 1345.4 2844.77 1345.4 2860.7 1344.9 2860.51 1344.91 2876.33 1343.53 2876.12 1343.56 2891.75 1341.25 2891.57 1341.28 2906.76 1338.21 2906.57 1338.26 2921.26 1334.44 2921.08 1334.5 2935.14 1330 2934.96 1330.06 2948.33 1324.94 2948.13 1325.02 2960.57 1319.33 2960.36 1319.44 2971.8 1313.25 2971.6 1313.37 2981.97 1306.8 2981.71 1306.99 2990.77 1299.99 2990.53 1300.2 2998.28 1292.95 2998.05 1293.18 3001.36 1289.43 3000.86 1290.19 3003.78 1284.26 3009.95 1287.31 3006.82 1293.64 3003.09 1297.86 2995.1 1305.33 2985.79 1312.53 2975.18 1319.24 2963.53 1325.54 2950.89 1331.32 2937.33 1336.52 2923.08 1341.07 2908.21 1344.94 2892.84 1348.03 2877.03 1350.37 2861.02 1351.77 2844.95 1352.27 2828.92 1352.46 2829 1352.46 2813.18 1353.02 2813.26 1353.02 2797.69 1353.89 2797.77 1353.89 2782.58 1355.07 2782.65 1355.07 2767.96 1356.51 2768.05 1356.5 2753.92 1358.25 2754.01 1358.23 2740.7 1360.23 2740.77 1360.22 2728.33 1362.35 2728.46 1362.32 2716.96 1364.76 2717.06 1364.74 2706.75 1367.24 2706.91 1367.19 2697.85 1369.88 2698.05 1369.82 2690.3 1372.63 2690.49 1372.55 2687.18 1373.99 2687.35 1373.91 2684.47 1375.35 2684.71 1375.22 2682.21 1376.72 2682.42 1376.58 2680.29 1378.08 2680.64 1377.8 2679.02 1379.3 2679.38 1378.91 2678.19 1380.41 2678.6 1379.76 2677.85 1381.32 2678.14 1380.4 2677.89 1381.9ZM2992.39 1285.02 3015.25 1264.46 3017.98 1295.08Z" fill="#5B9BD5"/><text font-family="Times New Roman,Times New Roman_MSFontService,sans-serif" font-weight="400" font-size="83" transform="matrix(1 0 0 1 2660.75 1574)">I<tspan font-size="83" x="121.042" y="2">like</tspan><tspan font-size="83" x="339.266" y="2">it</tspan><tspan fill="#A5A5A5" font-size="83" x="474.809" y="-129">Layer 1</tspan><tspan fill="#A5A5A5" font-size="83" x="472.899" y="-339">Layer 2</tspan><tspan fill="#A5A5A5" font-size="83" x="472.898" y="-544">Layer 3</tspan></text><path d="M1302 1187.17C1302 1178.79 1308.79 1172 1317.17 1172L1406.83 1172C1415.21 1172 1422 1178.79 1422 1187.17L1422 1247.83C1422 1256.21 1415.21 1263 1406.83 1263L1317.17 1263C1308.79 1263 1302 1256.21 1302 1247.83Z" fill="#70AD47" fill-rule="evenodd"/><path d="M1471 1187.17C1471 1178.79 1477.79 1172 1486.17 1172L1575.83 1172C1584.21 1172 1591 1178.79 1591 1187.17L1591 1247.83C1591 1256.21 1584.21 1263 1575.83 1263L1486.17 1263C1477.79 1263 1471 1256.21 1471 1247.83Z" fill="#70AD47" fill-rule="evenodd"/><path d="M1643 1187.17C1643 1178.79 1649.79 1172 1658.17 1172L1747.83 1172C1756.21 1172 1763 1178.79 1763 1187.17L1763 1247.83C1763 1256.21 1756.21 1263 1747.83 1263L1658.17 1263C1649.79 1263 1643 1256.21 1643 1247.83Z" fill="#70AD47" fill-rule="evenodd"/><path d="M1302 1395C1302 1386.72 1308.72 1380 1317 1380L1407 1380C1415.28 1380 1422 1386.72 1422 1395L1422 1455C1422 1463.28 1415.28 1470 1407 1470L1317 1470C1308.72 1470 1302 1463.28 1302 1455Z" fill="#70AD47" fill-rule="evenodd"/><path d="M1471 1395C1471 1386.72 1477.72 1380 1486 1380L1576 1380C1584.28 1380 1591 1386.72 1591 1395L1591 1455C1591 1463.28 1584.28 1470 1576 1470L1486 1470C1477.72 1470 1471 1463.28 1471 1455Z" fill="#70AD47" fill-rule="evenodd"/><path d="M1643 1395C1643 1386.72 1649.72 1380 1658 1380L1748 1380C1756.28 1380 1763 1386.72 1763 1395L1763 1455C1763 1463.28 1756.28 1470 1748 1470L1658 1470C1649.72 1470 1643 1463.28 1643 1455Z" fill="#70AD47" fill-rule="evenodd"/><path d="M1302 980C1302 971.716 1308.72 965 1317 965L1407 965C1415.28 965 1422 971.716 1422 980L1422 1040C1422 1048.28 1415.28 1055 1407 1055L1317 1055C1308.72 1055 1302 1048.28 1302 1040Z" fill="#70AD47" fill-rule="evenodd"/><path d="M1471 980C1471 971.716 1477.72 965 1486 965L1576 965C1584.28 965 1591 971.716 1591 980L1591 1040C1591 1048.28 1584.28 1055 1576 1055L1486 1055C1477.72 1055 1471 1048.28 1471 1040Z" fill="#70AD47" fill-rule="evenodd"/><path d="M1643 980C1643 971.716 1649.72 965 1658 965L1748 965C1756.28 965 1763 971.716 1763 980L1763 1040C1763 1048.28 1756.28 1055 1748 1055L1658 1055C1649.72 1055 1643 1048.28 1643 1040Z" fill="#70AD47" fill-rule="evenodd"/><path d="M1700.06 1380.33 1700.06 1286.42 1706.94 1286.42 1706.94 1380.33ZM1689.75 1291 1703.5 1263.5 1717.25 1291Z" fill="#70AD47"/><path d="M3.4375-3.1855e-05 3.43837 93.9161-3.43663 93.9161-3.4375 3.1855e-05ZM13.7508 89.3326 0.00108268 116.833-13.7492 89.3329Z" fill="#70AD47" transform="matrix(1 0 0 -1 1703.5 1172.33)"/><path d="M1359.08 1172.02 1359.35 1168.97 1360.25 1165.68 1361.63 1162.57 1363.47 1159.45 1365.84 1156.45 1368.53 1153.63 1371.58 1150.84 1375.12 1148.04 1383.13 1142.87 1392.43 1137.93 1402.95 1133.21 1414.63 1128.89 1427.22 1124.91 1440.69 1121.3 1454.95 1118.21 1469.76 1115.5 1485.09 1113.36 1500.78 1111.78 1516.73 1110.77 1532.81 1110.46 1548.75 1110.15 1548.6 1110.15 1564.41 1109.15 1564.28 1109.16 1579.91 1107.6 1579.77 1107.62 1594.96 1105.49 1594.82 1105.52 1609.51 1102.83 1609.39 1102.85 1623.46 1099.79 1623.3 1099.83 1636.68 1096.26 1636.53 1096.31 1648.96 1092.37 1648.8 1092.42 1660.24 1088.17 1660.05 1088.25 1670.43 1083.69 1670.18 1083.81 1679.25 1078.93 1678.62 1079.36 1687.68 1071.51 1692.18 1076.7 1682.84 1084.81 1673.32 1089.93 1662.73 1094.58 1651.12 1098.9 1638.52 1102.89 1625 1106.49 1610.8 1109.58 1595.99 1112.29 1580.66 1114.44 1564.9 1116.01 1548.95 1117.02 1532.94 1117.33 1516.94 1117.65 1517.09 1117.64 1501.28 1118.64 1501.41 1118.63 1485.84 1120.19 1485.98 1120.18 1470.79 1122.3 1470.93 1122.28 1456.24 1124.97 1456.35 1124.94 1442.23 1128.01 1442.39 1127.97 1429.08 1131.53 1429.22 1131.49 1416.79 1135.42 1416.94 1135.37 1405.44 1139.62 1405.66 1139.53 1395.34 1144.16 1395.55 1144.06 1386.49 1148.87 1386.74 1148.72 1378.99 1153.72 1379.26 1153.53 1375.95 1156.15 1376.13 1156 1373.26 1158.62 1373.43 1158.45 1370.93 1161.08 1371.13 1160.84 1369.01 1163.53 1369.27 1163.15 1367.65 1165.9 1367.83 1165.54 1366.64 1168.22 1366.82 1167.74 1366.07 1170.49 1366.17 1169.9 1365.92 1172.65ZM1676.08 1069.84 1703.25 1055.46 1698.45 1085.83Z" fill="#70AD47"/><path d="M1359.08 1380.02 1359.35 1376.97 1360.25 1373.68 1361.63 1370.57 1363.47 1367.45 1365.84 1364.45 1368.53 1361.63 1371.58 1358.84 1375.12 1356.04 1383.13 1350.87 1392.43 1345.93 1402.95 1341.21 1414.63 1336.89 1427.22 1332.91 1440.69 1329.31 1454.95 1326.21 1469.76 1323.5 1485.09 1321.36 1500.78 1319.78 1516.73 1318.77 1532.81 1318.46 1548.75 1318.15 1548.6 1318.15 1564.41 1317.15 1564.28 1317.16 1579.91 1315.6 1579.77 1315.62 1594.96 1313.49 1594.82 1313.52 1609.51 1310.83 1609.39 1310.85 1623.46 1307.79 1623.3 1307.83 1636.68 1304.26 1636.53 1304.31 1648.96 1300.37 1648.8 1300.42 1660.24 1296.18 1660.05 1296.25 1670.43 1291.69 1670.18 1291.81 1679.25 1286.93 1678.62 1287.36 1687.68 1279.51 1692.18 1284.7 1682.84 1292.81 1673.32 1297.93 1662.73 1302.58 1651.12 1306.9 1638.52 1310.89 1625 1314.49 1610.8 1317.58 1595.99 1320.29 1580.66 1322.44 1564.9 1324.01 1548.95 1325.02 1532.94 1325.33 1516.94 1325.65 1517.09 1325.64 1501.28 1326.64 1501.41 1326.63 1485.84 1328.19 1485.98 1328.18 1470.79 1330.3 1470.93 1330.28 1456.24 1332.97 1456.35 1332.94 1442.23 1336.01 1442.39 1335.97 1429.08 1339.53 1429.23 1339.49 1416.79 1343.42 1416.94 1343.37 1405.44 1347.62 1405.66 1347.53 1395.34 1352.16 1395.55 1352.06 1386.49 1356.87 1386.74 1356.72 1378.99 1361.72 1379.26 1361.53 1375.95 1364.15 1376.13 1364 1373.26 1366.62 1373.43 1366.46 1370.93 1369.08 1371.13 1368.84 1369.01 1371.53 1369.27 1371.15 1367.65 1373.9 1367.83 1373.54 1366.64 1376.22 1366.82 1375.74 1366.07 1378.49 1366.17 1377.9 1365.92 1380.65ZM1676.08 1277.84 1703.25 1263.46 1698.45 1293.83Z" fill="#70AD47"/><text font-family="Times New Roman,Times New Roman_MSFontService,sans-serif" font-weight="400" font-size="83" transform="matrix(1 0 0 1 1339.01 1577)">I<tspan font-size="83" x="132.782" y="-1">like</tspan><tspan font-size="83" x="341.027" y="0">it</tspan><tspan fill="#A5A5A5" font-size="83" x="484.734" y="-133">Layer 1</tspan><tspan fill="#A5A5A5" font-size="83" x="482.825" y="-343">Layer 2</tspan><tspan fill="#A5A5A5" font-size="83" x="482.825" y="-548">Layer 3</tspan><tspan font-weight="700" font-size="92" x="71.8518" y="189">Fine</tspan><tspan font-weight="700" font-size="92" x="244.873" y="189">-</tspan><tspan font-weight="700" font-size="92" x="275.237" y="189">Tuning</tspan><tspan font-weight="700" font-size="92" x="1109.84" y="188">Prefix</tspan><tspan font-weight="700" font-size="92" x="1347.09" y="188">-</tspan><tspan font-weight="700" font-size="92" x="1377.46" y="188">Tuning</tspan></text><path d="M1528.1 1379.82 1528.67 1376.06 1530.43 1372.01 1533.11 1368.25 1536.57 1364.71 1540.76 1361.4 1545.65 1358.3 1551.04 1355.44 1556.99 1352.72 1563.5 1350.27 1570.35 1348.09 1577.63 1346.18 1585.19 1344.51 1600.93 1342.23 1609.14 1341.59 1617.23 1341.4 1617.13 1341.4 1625.19 1340.96 1624.79 1341.01 1632.73 1339.63 1632.39 1339.71 1640.27 1337.52 1639.93 1337.64 1647.55 1334.64 1647.29 1334.75 1654.72 1331.07 1654.46 1331.21 1661.52 1326.9 1661.28 1327.06 1668.03 1322.12 1667.79 1322.32 1674.04 1316.82 1673.84 1317.01 1679.59 1311.07 1679.41 1311.27 1684.66 1304.9 1684.46 1305.16 1689.03 1298.41 1688.87 1298.67 1692.74 1291.67 1692.47 1292.32 1694.79 1284.8 1701.36 1286.83 1698.93 1294.69 1694.81 1302.13 1690.07 1309.14 1684.63 1315.75 1678.69 1321.89 1672.22 1327.58 1665.23 1332.69 1657.91 1337.16 1650.21 1340.98 1642.28 1344.1 1634.07 1346.38 1625.76 1347.82 1617.45 1348.27 1609.39 1348.46 1609.58 1348.45 1601.58 1349.07 1601.81 1349.05 1586.31 1351.3 1586.55 1351.25 1579.18 1352.88 1579.31 1352.85 1572.19 1354.72 1572.35 1354.67 1565.67 1356.8 1565.84 1356.74 1559.52 1359.11 1559.74 1359.02 1553.99 1361.65 1554.17 1361.56 1548.98 1364.31 1549.22 1364.17 1544.59 1367.11 1544.88 1366.91 1541.01 1369.97 1541.33 1369.68 1538.2 1372.87 1538.55 1372.45 1536.24 1375.7 1536.59 1375.08 1535.15 1378.39 1535.4 1377.53 1534.9 1380.85ZM1683.65 1287.25 1703.12 1263.46 1710.48 1293.31Z" fill="#70AD47"/><path d="M1528.1 1171.86 1528.66 1167.87 1530.39 1163.64 1533.05 1159.69 1536.49 1155.98 1540.66 1152.41 1545.56 1149.1 1550.97 1146.03 1556.92 1143.19 1563.43 1140.55 1570.29 1138.24 1577.58 1136.13 1585.13 1134.4 1592.98 1133 1600.95 1131.98 1609.12 1131.27 1617.23 1131.08 1617.13 1131.09 1625.19 1130.65 1624.81 1130.69 1632.75 1129.38 1632.42 1129.45 1640.29 1127.33 1639.95 1127.44 1647.58 1124.5 1647.33 1124.61 1654.76 1121.05 1654.5 1121.19 1661.56 1117 1661.32 1117.16 1668.07 1112.35 1667.84 1112.53 1674.09 1107.21 1673.87 1107.42 1679.62 1101.6 1679.44 1101.8 1684.69 1095.61 1684.5 1095.86 1689.06 1089.36 1688.89 1089.63 1692.76 1082.82 1692.46 1083.51 1694.54 1076.75 1701.12 1078.77 1698.92 1085.89 1694.78 1093.18 1690.04 1099.94 1684.6 1106.35 1678.65 1112.36 1672.18 1117.86 1665.19 1122.84 1657.87 1127.18 1650.17 1130.87 1642.26 1133.92 1634.04 1136.13 1625.75 1137.51 1617.45 1137.96 1609.39 1138.15 1609.61 1138.13 1601.61 1138.82 1601.75 1138.81 1593.94 1139.81 1594.1 1139.78 1586.42 1141.16 1586.58 1141.12 1579.2 1142.81 1579.39 1142.76 1572.27 1144.82 1572.41 1144.78 1565.72 1147.03 1565.92 1146.96 1559.61 1149.52 1559.8 1149.43 1554.05 1152.18 1554.26 1152.08 1549.07 1155.01 1549.3 1154.87 1544.67 1157.99 1544.98 1157.76 1541.11 1161.07 1541.4 1160.79 1538.27 1164.17 1538.6 1163.75 1536.29 1167.19 1536.62 1166.58 1535.18 1170.08 1535.4 1169.25 1534.9 1172.81ZM1683.39 1079.04 1703.12 1055.46 1710.15 1085.39Z" fill="#70AD47"/><path d="M2840.13 1172.66 2840.74 1169.59 2842.69 1166.29 2845.47 1163.44 2848.96 1160.78 2853.15 1158.35 2858 1156.05 2863.38 1153.92 2869.29 1151.93 2875.76 1150.07 2882.58 1148.47 2889.82 1147.01 2897.35 1145.8 2913.07 1144.09 2929.19 1143.52 2929.1 1143.53 2937.16 1143.03 2936.71 1143.09 2944.65 1141.52 2944.3 1141.61 2952.17 1139.17 2951.84 1139.3 2959.46 1136.05 2959.15 1136.2 2966.58 1132.08 2966.31 1132.24 2973.38 1127.43 2973.14 1127.61 2979.89 1122.11 2979.66 1122.32 2985.91 1116.19 2985.73 1116.38 2991.48 1109.82 2991.29 1110.04 2996.54 1102.92 2996.38 1103.16 3000.94 1095.72 3000.8 1095.99 3004.67 1088.18 3004.46 1088.72 3007.68 1078.01 3014.26 1079.98 3010.96 1090.98 3006.89 1099.19 3002.17 1106.88 2996.74 1114.24 2990.81 1121.01 2984.36 1127.34 2977.37 1133.03 2970.05 1138.01 2962.32 1142.3 2954.37 1145.69 2946.15 1148.23 2937.81 1149.87 2929.48 1150.39 2913.43 1150.96 2913.68 1150.94 2898.18 1152.63 2898.36 1152.6 2890.98 1153.79 2891.12 1153.77 2883.99 1155.2 2884.09 1155.18 2877.41 1156.74 2877.57 1156.7 2871.26 1158.51 2871.41 1158.47 2865.66 1160.4 2865.83 1160.34 2860.64 1162.4 2860.84 1162.32 2856.22 1164.5 2856.48 1164.37 2852.6 1166.62 2852.95 1166.38 2849.83 1168.76 2850.21 1168.42 2847.9 1170.79 2848.4 1170.14 2846.96 1172.58 2847.37 1171.51 2846.87 1174.01ZM2996.61 1081.01 3015.12 1056.46 3023.66 1086Z" fill="#5B9BD5"/><path d="M2840.13 1380.66 2840.74 1377.59 2842.69 1374.29 2845.47 1371.44 2848.96 1368.78 2853.15 1366.35 2858 1364.05 2863.38 1361.92 2869.29 1359.93 2875.76 1358.07 2882.58 1356.47 2889.82 1355.01 2897.35 1353.8 2913.07 1352.09 2929.19 1351.52 2929.1 1351.53 2937.16 1351.03 2936.71 1351.09 2944.65 1349.52 2944.3 1349.61 2952.17 1347.17 2951.84 1347.3 2959.46 1344.05 2959.15 1344.2 2966.58 1340.08 2966.31 1340.24 2973.38 1335.43 2973.14 1335.61 2979.89 1330.11 2979.66 1330.32 2985.91 1324.19 2985.73 1324.38 2991.48 1317.82 2991.3 1318.04 2996.55 1310.92 2996.38 1311.16 3000.94 1303.72 3000.8 1303.99 3004.67 1296.18 3004.46 1296.72 3007.68 1286.01 3014.26 1287.98 3010.96 1298.98 3006.89 1307.19 3002.17 1314.88 2996.74 1322.24 2990.81 1329.01 2984.36 1335.34 2977.37 1341.03 2970.06 1346.01 2962.32 1350.3 2954.37 1353.69 2946.16 1356.23 2937.82 1357.88 2929.48 1358.39 2913.43 1358.96 2913.68 1358.94 2898.18 1360.63 2898.36 1360.6 2890.98 1361.79 2891.12 1361.77 2883.99 1363.2 2884.09 1363.18 2877.41 1364.74 2877.57 1364.7 2871.26 1366.51 2871.41 1366.47 2865.66 1368.4 2865.83 1368.34 2860.65 1370.4 2860.84 1370.32 2856.22 1372.5 2856.48 1372.37 2852.6 1374.62 2852.96 1374.38 2849.83 1376.76 2850.21 1376.42 2847.9 1378.79 2848.4 1378.14 2846.96 1380.58 2847.37 1379.51 2846.87 1382.01ZM2996.61 1289.01 3015.12 1264.46 3023.66 1294Z" fill="#5B9BD5"/></g></svg>